<svg xmlns="http://www.w3.org/2000/svg" xmlns:xlink="http://www.w3.org/1999/xlink" xmlns:lucid="lucid" width="713.58" height="958"><g transform="translate(-344.2995713021029 -20)" lucid:page-tab-id="2zWYD._afOcC"><path d="M0 0h1615.27v1142.7H0z" fill="#fff"/><path d="M562.57 45c0-2.76 2.24-5 5-5h150c2.76 0 5 2.24 5 5v110c0 2.76-2.24 5-5 5h-150c-2.76 0-5-2.24-5-5z" stroke="#666" stroke-width="2" fill="#fff"/><use xlink:href="#a" transform="matrix(1,0,0,1,570.5667090216007,48.0000000000193) translate(19.099999999999994 34)"/><use xlink:href="#b" transform="matrix(1,0,0,1,570.5667090216007,48.0000000000193) translate(108.95 34)"/><use xlink:href="#c" transform="matrix(1,0,0,1,570.5667090216007,48.0000000000193) translate(15.624999999999993 55.6)"/><use xlink:href="#d" transform="matrix(1,0,0,1,570.5667090216007,48.0000000000193) translate(41.05 77.2)"/><path d="M643.57 238.83h-2v-23.57h2zm0-45.17h-2v-30.84h2z"/><path d="M643.57 239.83h-2v-1.02h2zM653.6 179.67l-1.7 1.02-9.33-15.77-9.32 15.76-1.72-1.03L642.57 161z"/><use xlink:href="#e" transform="matrix(1,0,0,1,611.1167090216006,193.6594017094263) translate(0.004999999999999005 14.4)"/><path d="M562.57 645.67c0-2.76 2.24-5 5-5h150c2.76 0 5 2.24 5 5v110c0 2.76-2.24 5-5 5h-150c-2.76 0-5-2.24-5-5z" stroke="#000" stroke-width="2" fill="#fff"/><use xlink:href="#f" transform="matrix(1,0,0,1,570.5667090216007,648.6666666667052) translate(41.55 55.6)"/><path d="M793.34 899h-68.77v-2h68.77zm165.54-5.92l-.3 1.9-2.13 2.9-3.4 1.12h-79.8v-2h79.47l2.5-.82 1.45-2 .2-1.26V763.48h2z"/><path d="M724.6 899h-1.03v-2h1.02zM968.92 780.34l-1.72 1.02-9.32-15.76-9.32 15.76-1.72-1.02 11.04-18.67z"/><use xlink:href="#g" transform="matrix(1,0,0,1,793.3422058481681,887.2) translate(0 14.4)"/><path d="M641 638.67h-2V618.9h2zm2.57-41.36h-2V564.5h2z"/><path d="M641 639.67h-2v-1.03h2zM653.6 581.34l-1.7 1.02-9.33-15.76-9.32 15.76-1.72-1.02 11.04-18.67z"/><use xlink:href="#h" transform="matrix(1,0,0,1,598.5749999999996,597.3143510202083) translate(0 14.4)"/><path d="M643.57 836h-2v-18.07h2zm0-39.67h-2v-32.85h2z"/><path d="M643.57 837h-2v-1.03h2zM653.6 780.34l-1.7 1.02-9.33-15.76-9.32 15.76-1.72-1.02 11.04-18.67z"/><use xlink:href="#i" transform="matrix(1,0,0,1,575.6417090216007,796.3264367816245) translate(0 14.4)"/><path d="M562.57 843c0-2.76 2.24-5 5-5h150c2.76 0 5 2.24 5 5v110c0 2.76-2.24 5-5 5h-150c-2.76 0-5-2.24-5-5z" stroke="#666" stroke-width="2" fill="#fff"/><use xlink:href="#j" transform="matrix(1,0,0,1,570.5667090216007,846) translate(23.549999999999997 55.6)"/><path d="M877.88 645.67c0-2.76 2.24-5 5-5h150c2.76 0 5 2.24 5 5v110c0 2.76-2.24 5-5 5h-150c-2.76 0-5-2.24-5-5z" stroke="#666" stroke-width="2" fill="#fff"/><use xlink:href="#k" transform="matrix(1,0,0,1,885.8766136232084,648.6666666667052) translate(46.55 55.6)"/><path d="M724.57 100h150.5" stroke="#000" stroke-width="2" fill="none"/><path d="M724.6 101h-1.03v-2h1.02z"/><path d="M857.7 110.18L874.9 100l-17.2-10.18" stroke="#000" stroke-width="2" fill="none"/><use xlink:href="#l" transform="matrix(1,0,0,1,751.7716613223774,74.40000000000964) translate(0 14.4)"/><path d="M877.88 45c0-2.76 2.24-5 5-5h150c2.76 0 5 2.24 5 5v110c0 2.76-2.24 5-5 5h-150c-2.76 0-5-2.24-5-5z" stroke="#000" stroke-width="2" fill="#fff"/><use xlink:href="#m" transform="matrix(1,0,0,1,885.8766136232084,48) translate(29.574999999999996 44.8)"/><use xlink:href="#n" transform="matrix(1,0,0,1,885.8766136232084,48) translate(38.05 66.4)"/><path d="M562.57 446.67c0-2.76 2.24-5 5-5h150c2.76 0 5 2.24 5 5v110c0 2.76-2.24 5-5 5h-150c-2.76 0-5-2.24-5-5z" stroke="#000" stroke-width="2" fill="#fff"/><use xlink:href="#o" transform="matrix(1,0,0,1,570.5667090216007,449.6666666667053) translate(44.025 55.6)"/><path d="M562.57 245.83c0-2.76 2.24-5 5-5h150c2.76 0 5 2.24 5 5v110c0 2.76-2.24 5-5 5h-150c-2.76 0-5-2.24-5-5z" stroke="#000" stroke-width="2" fill="#fff"/><use xlink:href="#p" transform="matrix(1,0,0,1,570.5667090216007,248.83333333336225) translate(56.525 55.6)"/><path d="M643.57 439.67h-2V420.2h2zm0-41.06h-2v-34.95h2z"/><path d="M643.57 440.67h-2v-1.03h2zM653.6 380.5l-1.7 1.02-9.33-15.76-9.32 15.76-1.72-1.02 11.04-18.67z"/><use xlink:href="#q" transform="matrix(1,0,0,1,611.1167090216006,398.60517241382786) translate(0 14.4)"/><path d="M723.47 242.72l-.93-1.77 55.42-29.06h4.3zm154.7-81.1l-54.7 28.67h-4.3l58.06-30.46z"/><path d="M723.5 242.7l-.78.42-1.2-1.64 1.05-.54zM879.3 159.9l-11.4 18.43-1.7-1.05 9.63-15.57-18.3-.93.1-2z"/><use xlink:href="#l" transform="matrix(1,0,0,1,752.2648536013202,190.29224131065132) translate(0 14.4)"/><path d="M958.88 638.67h-2V598.8h2zm0-61.47h-2V162.82h2z"/><path d="M958.88 639.67h-2v-1.03h2zM968.92 179.67l-1.72 1.02-9.32-15.77-9.32 15.76-1.72-1.03L957.88 161z"/><use xlink:href="#r" transform="matrix(1,0,0,1,908.4266136232084,577.2000000000002) translate(0 14.4)"/><path d="M494.97 392.03l.78 19.28 1.06 12.86 1.22 9.64 1.3 7.65 1.33 6.3 1.36 5.3 1.38 4.57 1.38 3.98 1.4 3.5 1.38 3.13 1.4 2.8 1.38 2.54 1.4 2.3 1.4 2.13 1.43 1.95 1.43 1.8 1.44 1.68 1.47 1.56 1.48 1.46 1.53 1.37 1.57 1.3 1.6 1.2 1.64 1.15 1.72 1.08 1.76 1.02 1.84.96 1.92.9 2 .85 2.14.78 2.24.73 2.4.67 2.54.6 2.74.52 2.96.43 3.22.34 3.5.22 2.9.05-.04 2-2.93-.06-3.6-.24-3.3-.35-3.03-.43-2.82-.54-2.64-.62-2.46-.68-2.32-.75-2.2-.82-2.1-.88-2-.94-1.9-1-1.84-1.06-1.77-1.13-1.7-1.2-1.68-1.25-1.62-1.36-1.6-1.43-1.54-1.5-1.52-1.63-1.5-1.74-1.5-1.87-1.45-2.02-1.47-2.2-1.44-2.37-1.44-2.6-1.43-2.9-1.43-3.2-1.4-3.57-1.42-4.06-1.4-4.64-1.38-5.4-1.35-6.37-1.3-7.74-1.23-9.73-1.07-12.93-.78-19.38.54-69.7h2zm64.8-267h-.68l-4.54.18-4 .35-3.58.45-3.24.55-2.94.62-2.7.7-2.47.74-2.3.8-2.15.86-2 .9-1.9.94-1.8.98-1.7 1.03-1.64 1.1-1.56 1.13-1.5 1.2-1.44 1.24-1.4 1.32-1.37 1.38-1.33 1.47-1.3 1.58-1.27 1.68-1.26 1.8-1.22 1.96-1.22 2.1-1.2 2.3-1.2 2.55-1.18 2.83-1.17 3.15-1.15 3.57-1.15 4.1-1.12 4.8-1.08 5.72-1.04 7.04-.95 9.1-.77 12.74.43 90.83h-2l-.43-90.9.8-12.83.95-9.18 1.04-7.12 1.1-5.8 1.15-4.88 1.16-4.18 1.2-3.66 1.2-3.23 1.2-2.9 1.23-2.6 1.25-2.4 1.27-2.18 1.28-2.02 1.3-1.87 1.32-1.75 1.36-1.63 1.38-1.54 1.43-1.44 1.47-1.38 1.5-1.3 1.57-1.24 1.63-1.2 1.7-1.1 1.78-1.1 1.86-1.02 1.97-.97 2.1-.93 2.23-.88 2.38-.83 2.57-.77 2.78-.7 3.02-.65 3.32-.56 3.65-.46 4.1-.34 4.58-.2h.7z"/><path d="M561.57 500.67v2l-1.05-.02.04-2zM561.57 124l-17.86 12.32-1.12-1.65 15.07-10.4-16.37-8.2.9-1.78z"/><use xlink:href="#s" transform="matrix(1,0,0,1,450.64766504426655,300.77432178832703) translate(0 14.4)"/><path d="M439.14 614.23l2.3 9.77 2.18 7.7 3.52 10.25 4.5 10.43 4.5 8.3 4.34 6.6 4.18 5.27 4 4.23 3.87 3.43 3.72 2.77 3.63 2.23 3.57 1.8 3.55 1.4 11.2 3.44 12.93 3.07 14.7 2.48 16.7 1.66 18.07.6-.07 2-18.14-.6-16.85-1.68-14.82-2.5-13.06-3.1-11.34-3.48-3.7-1.47-3.72-1.85-3.77-2.32-3.87-2.87-3.98-3.54-4.13-4.36-4.3-5.42-4.44-6.74-4.55-8.44-4.58-10.58-3.56-10.38-2.18-7.8-2.33-9.85-1-5.13h2.04zM559.76 79.7l-5 .06-9.55.45-8.36.75-7.45 1-6.7 1.15-6.04 1.32-5.53 1.46-5.08 1.56-4.7 1.67-4.38 1.77-4.1 1.85-3.83 1.93-3.63 2.02-3.43 2.1-3.27 2.2-3.12 2.3-3 2.4-2.86 2.5-2.77 2.64-2.67 2.77-2.6 2.9-2.5 3.08-2.43 3.24-2.37 3.45-2.3 3.68-2.25 3.93-2.18 4.23-2.12 4.56-2.04 4.96-2 5.4-1.87 5.93-1.77 6.42-2.1 9-2.15 11.3-2.12 14.52-2.04 19.52L427.7 248l-.03 146.66-.03 51.43 1.53 76.9 2.38 37.17.66 6.15h-2l-.64-5.98-2.4-37.24-1.52-77 .03-51.44.04-146.73 1.75-28.38 2.04-19.6 2.13-14.62 2.16-11.36 2.12-9.1 1.8-6.5 1.9-6 2-5.48 2.08-5.04 2.15-4.64 2.22-4.3 2.3-4.02 2.34-3.75 2.42-3.52 2.5-3.32 2.55-3.12 2.64-2.97 2.74-2.8 2.83-2.7 2.94-2.56 3.06-2.45 3.2-2.36 3.33-2.24 3.5-2.16 3.7-2.06 3.92-1.97 4.17-1.87 4.44-1.8 4.78-1.7 5.16-1.58 5.6-1.47 6.15-1.34 6.76-1.18 7.52-1 8.45-.75 9.62-.44 5.04-.07z"/><path d="M561.57 699.67v2l-1.06-.04.07-2zM561.57 78.67L543.25 90.3l-1.07-1.7 15.46-9.8-16.05-8.83.96-1.75z"/><use xlink:href="#t" transform="matrix(1,0,0,1,355.2995713021029,566.3237914751883) translate(0.0049999999999954525 14.4)"/><use xlink:href="#u" transform="matrix(1,0,0,1,355.2995713021029,566.3237914751883) translate(38.87999999999999 36)"/><path d="M794.33 502.67l.27 72.1-.7 17.2-.9 10.9-1 8.03-1.06 6.34-1.1 5.22-1.14 4.42-1.15 3.82-1.17 3.36-1.18 2.98-1.2 2.7-1.2 2.43-1.24 2.24-1.24 2.07-1.27 1.9-1.3 1.8-1.32 1.65-1.35 1.57-1.4 1.47-1.43 1.4-1.48 1.35-1.54 1.27-1.6 1.2-1.68 1.17-1.75 1.1-1.85 1.08-1.96 1.02-2.1.98-2.2.94-2.4.87-2.58.84-2.8.8-3.07.7-3.4.66-3.75.55-4.23.45-4.8.3-4.48.1-.05-2 4.44-.1 4.7-.3 4.15-.42 3.68-.55 3.3-.62 3-.7 2.7-.76 2.5-.8 2.32-.87 2.15-.9 2-.95 1.88-.98 1.78-1.03 1.7-1.07 1.6-1.1 1.53-1.18 1.46-1.22 1.42-1.28 1.38-1.34 1.33-1.43 1.3-1.5 1.26-1.6 1.25-1.72 1.23-1.84 1.2-2 1.2-2.15 1.16-2.37 1.15-2.6 1.15-2.92 1.14-3.28 1.13-3.74 1.1-4.33 1.1-5.13 1.05-6.26 1-7.94.9-10.8.68-17.12-.27-72.08.13-8.22h2zm-58.16-202l9.47.92 6.7 1.13 5.17 1.28 4.2 1.38 3.57 1.46 3.1 1.55 2.75 1.62 2.5 1.75 2.3 1.87 2.17 2.04 2.04 2.23 1.96 2.5 1.9 2.8 1.86 3.2 1.82 3.8 1.8 4.55 1.78 5.68 1.72 7.37.63 3.42.97 6.6.93 8.96.8 12.94-1.5 93.12h-2l1.5-93.07-.8-12.83-.9-8.87-.97-6.52-.6-3.35-1.7-7.24-1.73-5.54-1.75-4.42-1.76-3.65-1.8-3.1-1.8-2.68-1.88-2.36-1.95-2.12-2.05-1.93-2.2-1.78-2.38-1.67-2.63-1.56-2.96-1.47-3.42-1.4-4.07-1.34-5.02-1.24-6.55-1.13-9.34-.9-10.68-.3.05-2z"/><path d="M724.6 671.65l-1.03.02v-2l1-.02zM743.6 292.8l-16.1 8.7 15.38 9.9-1.1 1.7-18.2-11.77 19.07-10.3z"/><use xlink:href="#v" transform="matrix(1,0,0,1,747.2126852038051,472.84004482598397) translate(0 14.4)"/><path d="M751.82 701.67h-26.44v-2h26.44zm124.06 0h-27.26v-2h27.26z"/><path d="M876.88 701.67h-1.03v-2h1.03zM743.26 691.35l-15.76 9.32 15.76 9.32-1.02 1.7-18.67-11.03 18.67-11.04z"/><g><use xlink:href="#w" transform="matrix(1,0,0,1,751.8216613224046,689.8666666667052) translate(0 14.4)"/></g><defs><path d="M143 4C61 4 22-44 18-125c-5-107 100-154 193-111 17 8 29 25 37 43l-32 9c-13-25-37-40-76-40-61 0-88 39-88 99 0 61 29 100 91 101 35 0 62-11 79-27v-45h-74v-28h105v86C228-13 192 4 143 4" id="x"/><path d="M100-194c63 0 86 42 84 106H49c0 40 14 67 53 68 26 1 43-12 49-29l28 8c-11 28-37 45-77 45C44 4 14-33 15-96c1-61 26-98 85-98zm52 81c6-60-76-77-97-28-3 7-6 17-6 28h103" id="y"/><path d="M100-194c62-1 85 37 85 99 1 63-27 99-86 99S16-35 15-95c0-66 28-99 85-99zM99-20c44 1 53-31 53-75 0-43-8-75-51-75s-53 32-53 75 10 74 51 75" id="z"/><path d="M24 0v-261h32V0H24" id="A"/><path d="M177-190C167-65 218 103 67 71c-23-6-38-20-44-43l32-5c15 47 100 32 89-28v-30C133-14 115 1 83 1 29 1 15-40 15-95c0-56 16-97 71-98 29-1 48 16 59 35 1-10 0-23 2-32h30zM94-22c36 0 50-32 50-73 0-42-14-75-50-75-39 0-46 34-46 75s6 73 46 73" id="B"/><path d="M24-231v-30h32v30H24zM24 0v-190h32V0H24" id="C"/><path d="M96-169c-40 0-48 33-48 73s9 75 48 75c24 0 41-14 43-38l32 2c-6 37-31 61-74 61-59 0-76-41-82-99-10-93 101-131 147-64 4 7 5 14 7 22l-32 3c-4-21-16-35-41-35" id="D"/><path d="M141-36C126-15 110 5 73 4 37 3 15-17 15-53c-1-64 63-63 125-63 3-35-9-54-41-54-24 1-41 7-42 31l-33-3c5-37 33-52 76-52 45 0 72 20 72 64v82c-1 20 7 32 28 27v20c-31 9-61-2-59-35zM48-53c0 20 12 33 32 33 41-3 63-29 60-74-43 2-92-5-92 41" id="E"/><g id="a"><use transform="matrix(0.05,0,0,0.05,0,0)" xlink:href="#x"/><use transform="matrix(0.05,0,0,0.05,14,0)" xlink:href="#y"/><use transform="matrix(0.05,0,0,0.05,24,0)" xlink:href="#z"/><use transform="matrix(0.05,0,0,0.05,34,0)" xlink:href="#A"/><use transform="matrix(0.05,0,0,0.05,37.95,0)" xlink:href="#z"/><use transform="matrix(0.05,0,0,0.05,47.95,0)" xlink:href="#B"/><use transform="matrix(0.05,0,0,0.05,57.95,0)" xlink:href="#C"/><use transform="matrix(0.05,0,0,0.05,61.900000000000006,0)" xlink:href="#D"/><use transform="matrix(0.05,0,0,0.05,70.9,0)" xlink:href="#E"/><use transform="matrix(0.05,0,0,0.05,80.9,0)" xlink:href="#A"/></g><path d="M114-163C36-179 61-72 57 0H25l-1-190h30c1 12-1 29 2 39 6-27 23-49 58-41v29" id="F"/><g id="b"><use transform="matrix(0.05,0,0,0.05,0,0)" xlink:href="#z"/><use transform="matrix(0.05,0,0,0.05,10,0)" xlink:href="#F"/></g><path d="M205 0l-28-72H64L36 0H1l101-248h38L239 0h-34zm-38-99l-47-123c-12 45-31 82-46 123h93" id="G"/><path d="M85-194c31 0 48 13 60 33l-1-100h32l1 261h-30c-2-10 0-23-3-31C134-8 116 4 85 4 32 4 16-35 15-94c0-66 23-100 70-100zm9 24c-40 0-46 34-46 75 0 40 6 74 45 74 42 0 51-32 51-76 0-42-9-74-50-73" id="H"/><path d="M210-169c-67 3-38 105-44 169h-31v-121c0-29-5-50-35-48C34-165 62-65 56 0H25l-1-190h30c1 10-1 24 2 32 10-44 99-50 107 0 11-21 27-35 58-36 85-2 47 119 55 194h-31v-121c0-29-5-49-35-48" id="I"/><path d="M117-194c89-4 53 116 60 194h-32v-121c0-31-8-49-39-48C34-167 62-67 57 0H25l-1-190h30c1 10-1 24 2 32 11-22 29-35 61-36" id="J"/><path d="M135-143c-3-34-86-38-87 0 15 53 115 12 119 90S17 21 10-45l28-5c4 36 97 45 98 0-10-56-113-15-118-90-4-57 82-63 122-42 12 7 21 19 24 35" id="K"/><path d="M59-47c-2 24 18 29 38 22v24C64 9 27 4 27-40v-127H5v-23h24l9-43h21v43h35v23H59v120" id="L"/><path d="M108 0H70L1-190h34L89-25l56-165h34" id="M"/><g id="c"><use transform="matrix(0.05,0,0,0.05,0,0)" xlink:href="#G"/><use transform="matrix(0.05,0,0,0.05,12,0)" xlink:href="#H"/><use transform="matrix(0.05,0,0,0.05,22,0)" xlink:href="#I"/><use transform="matrix(0.05,0,0,0.05,36.95,0)" xlink:href="#C"/><use transform="matrix(0.05,0,0,0.05,40.900000000000006,0)" xlink:href="#J"/><use transform="matrix(0.05,0,0,0.05,50.900000000000006,0)" xlink:href="#C"/><use transform="matrix(0.05,0,0,0.05,54.85,0)" xlink:href="#K"/><use transform="matrix(0.05,0,0,0.05,63.85,0)" xlink:href="#L"/><use transform="matrix(0.05,0,0,0.05,68.85000000000001,0)" xlink:href="#F"/><use transform="matrix(0.05,0,0,0.05,74.80000000000001,0)" xlink:href="#E"/><use transform="matrix(0.05,0,0,0.05,84.80000000000001,0)" xlink:href="#L"/><use transform="matrix(0.05,0,0,0.05,89.80000000000001,0)" xlink:href="#C"/><use transform="matrix(0.05,0,0,0.05,93.75000000000001,0)" xlink:href="#M"/><use transform="matrix(0.05,0,0,0.05,102.75,0)" xlink:href="#y"/></g><path d="M63-220v92h138v28H63V0H30v-248h175v28H63" id="N"/><path d="M84 4C-5 8 30-112 23-190h32v120c0 31 7 50 39 49 72-2 45-101 50-169h31l1 190h-30c-1-10 1-25-2-33-11 22-28 36-60 37" id="O"/><g id="d"><use transform="matrix(0.05,0,0,0.05,0,0)" xlink:href="#N"/><use transform="matrix(0.05,0,0,0.05,10.950000000000001,0)" xlink:href="#y"/><use transform="matrix(0.05,0,0,0.05,20.950000000000003,0)" xlink:href="#E"/><use transform="matrix(0.05,0,0,0.05,30.950000000000003,0)" xlink:href="#L"/><use transform="matrix(0.05,0,0,0.05,35.95,0)" xlink:href="#O"/><use transform="matrix(0.05,0,0,0.05,45.95,0)" xlink:href="#F"/><use transform="matrix(0.05,0,0,0.05,51.900000000000006,0)" xlink:href="#y"/></g><path d="M185-189c-5-48-123-54-124 2 14 75 158 14 163 119 3 78-121 87-175 55-17-10-28-26-33-46l33-7c5 56 141 63 141-1 0-78-155-14-162-118-5-82 145-84 179-34 5 7 8 16 11 25" id="P"/><path d="M140-251c81 0 123 46 123 126C263-46 219 4 140 4 59 4 17-45 17-125s42-126 123-126zm0 227c63 0 89-41 89-101s-29-99-89-99c-61 0-89 39-89 99S79-25 140-24" id="Q"/><path d="M101-234c-31-9-42 10-38 44h38v23H63V0H32v-167H5v-23h27c-7-52 17-82 69-68v24" id="R"/><g id="e"><use transform="matrix(0.05,0,0,0.05,0,0)" xlink:href="#C"/><use transform="matrix(0.05,0,0,0.05,3.95,0)" xlink:href="#K"/><use transform="matrix(0.05,0,0,0.05,12.949999999999998,0)" xlink:href="#P"/><use transform="matrix(0.05,0,0,0.05,24.95,0)" xlink:href="#C"/><use transform="matrix(0.05,0,0,0.05,28.899999999999995,0)" xlink:href="#L"/><use transform="matrix(0.05,0,0,0.05,33.9,0)" xlink:href="#y"/><use transform="matrix(0.05,0,0,0.05,43.9,0)" xlink:href="#Q"/><use transform="matrix(0.05,0,0,0.05,57.900000000000006,0)" xlink:href="#R"/></g><path d="M115-194c55 1 70 41 70 98S169 2 115 4C84 4 66-9 55-30l1 105H24l-1-265h31l2 30c10-21 28-34 59-34zm-8 174c40 0 45-34 45-75s-6-73-45-74c-42 0-51 32-51 76 0 43 10 73 51 73" id="S"/><g id="f"><use transform="matrix(0.05,0,0,0.05,0,0)" xlink:href="#P"/><use transform="matrix(0.05,0,0,0.05,12,0)" xlink:href="#E"/><use transform="matrix(0.05,0,0,0.05,22,0)" xlink:href="#I"/><use transform="matrix(0.05,0,0,0.05,36.95,0)" xlink:href="#S"/><use transform="matrix(0.05,0,0,0.05,46.95,0)" xlink:href="#A"/><use transform="matrix(0.05,0,0,0.05,50.900000000000006,0)" xlink:href="#y"/></g><path d="M106-169C34-169 62-67 57 0H25v-261h32l-1 103c12-21 28-36 61-36 89 0 53 116 60 194h-32v-121c2-32-8-49-39-48" id="T"/><path d="M233-177c-1 41-23 64-60 70L243 0h-38l-65-103H63V0H30v-248c88 3 205-21 203 71zM63-129c60-2 137 13 137-47 0-61-80-42-137-45v92" id="U"/><g id="g"><use transform="matrix(0.05,0,0,0.05,0,0)" xlink:href="#T"/><use transform="matrix(0.05,0,0,0.05,10,0)" xlink:href="#E"/><use transform="matrix(0.05,0,0,0.05,20,0)" xlink:href="#K"/><use transform="matrix(0.05,0,0,0.05,29,0)" xlink:href="#U"/><use transform="matrix(0.05,0,0,0.05,41.95,0)" xlink:href="#y"/><use transform="matrix(0.05,0,0,0.05,51.95,0)" xlink:href="#K"/><use transform="matrix(0.05,0,0,0.05,60.95,0)" xlink:href="#O"/><use transform="matrix(0.05,0,0,0.05,70.95,0)" xlink:href="#A"/><use transform="matrix(0.05,0,0,0.05,74.9,0)" xlink:href="#L"/></g><g id="h"><use transform="matrix(0.05,0,0,0.05,0,0)" xlink:href="#C"/><use transform="matrix(0.05,0,0,0.05,3.95,0)" xlink:href="#K"/><use transform="matrix(0.05,0,0,0.05,12.949999999999998,0)" xlink:href="#U"/><use transform="matrix(0.05,0,0,0.05,25.899999999999995,0)" xlink:href="#y"/><use transform="matrix(0.05,0,0,0.05,35.9,0)" xlink:href="#K"/><use transform="matrix(0.05,0,0,0.05,44.9,0)" xlink:href="#O"/><use transform="matrix(0.05,0,0,0.05,54.900000000000006,0)" xlink:href="#A"/><use transform="matrix(0.05,0,0,0.05,58.85,0)" xlink:href="#L"/><use transform="matrix(0.05,0,0,0.05,63.85,0)" xlink:href="#Q"/><use transform="matrix(0.05,0,0,0.05,77.85,0)" xlink:href="#R"/></g><path d="M115-194c53 0 69 39 70 98 0 66-23 100-70 100C84 3 66-7 56-30L54 0H23l1-261h32v101c10-23 28-34 59-34zm-8 174c40 0 45-34 45-75 0-40-5-75-45-74-42 0-51 32-51 76 0 43 10 73 51 73" id="V"/><g id="i"><use transform="matrix(0.05,0,0,0.05,0,0)" xlink:href="#z"/><use transform="matrix(0.05,0,0,0.05,10,0)" xlink:href="#V"/><use transform="matrix(0.05,0,0,0.05,20,0)" xlink:href="#K"/><use transform="matrix(0.05,0,0,0.05,29,0)" xlink:href="#y"/><use transform="matrix(0.05,0,0,0.05,39,0)" xlink:href="#F"/><use transform="matrix(0.05,0,0,0.05,44.95,0)" xlink:href="#M"/><use transform="matrix(0.05,0,0,0.05,53.95,0)" xlink:href="#y"/><use transform="matrix(0.05,0,0,0.05,63.95,0)" xlink:href="#K"/><use transform="matrix(0.05,0,0,0.05,72.95,0)" xlink:href="#P"/><use transform="matrix(0.05,0,0,0.05,84.95,0)" xlink:href="#E"/><use transform="matrix(0.05,0,0,0.05,94.95,0)" xlink:href="#I"/><use transform="matrix(0.05,0,0,0.05,109.9,0)" xlink:href="#S"/><use transform="matrix(0.05,0,0,0.05,119.9,0)" xlink:href="#A"/><use transform="matrix(0.05,0,0,0.05,123.85000000000001,0)" xlink:href="#y"/></g><g id="j"><use transform="matrix(0.05,0,0,0.05,0,0)" xlink:href="#Q"/><use transform="matrix(0.05,0,0,0.05,14,0)" xlink:href="#V"/><use transform="matrix(0.05,0,0,0.05,24,0)" xlink:href="#K"/><use transform="matrix(0.05,0,0,0.05,33,0)" xlink:href="#y"/><use transform="matrix(0.05,0,0,0.05,43,0)" xlink:href="#F"/><use transform="matrix(0.05,0,0,0.05,48.95,0)" xlink:href="#M"/><use transform="matrix(0.05,0,0,0.05,57.95,0)" xlink:href="#E"/><use transform="matrix(0.05,0,0,0.05,67.95,0)" xlink:href="#L"/><use transform="matrix(0.05,0,0,0.05,72.95,0)" xlink:href="#C"/><use transform="matrix(0.05,0,0,0.05,76.9,0)" xlink:href="#z"/><use transform="matrix(0.05,0,0,0.05,86.9,0)" xlink:href="#J"/></g><g id="k"><use transform="matrix(0.05,0,0,0.05,0,0)" xlink:href="#U"/><use transform="matrix(0.05,0,0,0.05,12.950000000000001,0)" xlink:href="#y"/><use transform="matrix(0.05,0,0,0.05,22.950000000000003,0)" xlink:href="#K"/><use transform="matrix(0.05,0,0,0.05,31.950000000000003,0)" xlink:href="#O"/><use transform="matrix(0.05,0,0,0.05,41.95,0)" xlink:href="#A"/><use transform="matrix(0.05,0,0,0.05,45.900000000000006,0)" xlink:href="#L"/></g><path d="M30-248c87 1 191-15 191 75 0 78-77 80-158 76V0H30v-248zm33 125c57 0 124 11 124-50 0-59-68-47-124-48v98" id="W"/><path d="M179-190L93 31C79 59 56 82 12 73V49c39 6 53-20 64-50L1-190h34L92-34l54-156h33" id="X"/><g id="l"><use transform="matrix(0.05,0,0,0.05,0,0)" xlink:href="#T"/><use transform="matrix(0.05,0,0,0.05,10,0)" xlink:href="#E"/><use transform="matrix(0.05,0,0,0.05,20,0)" xlink:href="#K"/><use transform="matrix(0.05,0,0,0.05,29,0)" xlink:href="#W"/><use transform="matrix(0.05,0,0,0.05,41,0)" xlink:href="#F"/><use transform="matrix(0.05,0,0,0.05,46.95,0)" xlink:href="#z"/><use transform="matrix(0.05,0,0,0.05,56.95,0)" xlink:href="#S"/><use transform="matrix(0.05,0,0,0.05,66.95,0)" xlink:href="#y"/><use transform="matrix(0.05,0,0,0.05,76.95,0)" xlink:href="#F"/><use transform="matrix(0.05,0,0,0.05,82.9,0)" xlink:href="#L"/><use transform="matrix(0.05,0,0,0.05,87.9,0)" xlink:href="#X"/></g><g id="m"><use transform="matrix(0.05,0,0,0.05,0,0)" xlink:href="#x"/><use transform="matrix(0.05,0,0,0.05,14,0)" xlink:href="#y"/><use transform="matrix(0.05,0,0,0.05,24,0)" xlink:href="#z"/><use transform="matrix(0.05,0,0,0.05,34,0)" xlink:href="#A"/><use transform="matrix(0.05,0,0,0.05,37.95,0)" xlink:href="#z"/><use transform="matrix(0.05,0,0,0.05,47.95,0)" xlink:href="#B"/><use transform="matrix(0.05,0,0,0.05,57.95,0)" xlink:href="#C"/><use transform="matrix(0.05,0,0,0.05,61.900000000000006,0)" xlink:href="#D"/><use transform="matrix(0.05,0,0,0.05,70.9,0)" xlink:href="#E"/><use transform="matrix(0.05,0,0,0.05,80.9,0)" xlink:href="#A"/></g><g id="n"><use transform="matrix(0.05,0,0,0.05,0,0)" xlink:href="#W"/><use transform="matrix(0.05,0,0,0.05,12,0)" xlink:href="#F"/><use transform="matrix(0.05,0,0,0.05,17.95,0)" xlink:href="#z"/><use transform="matrix(0.05,0,0,0.05,27.950000000000003,0)" xlink:href="#S"/><use transform="matrix(0.05,0,0,0.05,37.95,0)" xlink:href="#y"/><use transform="matrix(0.05,0,0,0.05,47.95,0)" xlink:href="#F"/><use transform="matrix(0.05,0,0,0.05,53.900000000000006,0)" xlink:href="#L"/><use transform="matrix(0.05,0,0,0.05,58.900000000000006,0)" xlink:href="#X"/></g><g id="o"><use transform="matrix(0.05,0,0,0.05,0,0)" xlink:href="#P"/><use transform="matrix(0.05,0,0,0.05,12,0)" xlink:href="#O"/><use transform="matrix(0.05,0,0,0.05,22,0)" xlink:href="#F"/><use transform="matrix(0.05,0,0,0.05,27.950000000000003,0)" xlink:href="#M"/><use transform="matrix(0.05,0,0,0.05,36.95,0)" xlink:href="#y"/><use transform="matrix(0.05,0,0,0.05,46.95,0)" xlink:href="#X"/></g><g id="p"><use transform="matrix(0.05,0,0,0.05,0,0)" xlink:href="#P"/><use transform="matrix(0.05,0,0,0.05,12,0)" xlink:href="#C"/><use transform="matrix(0.05,0,0,0.05,15.949999999999998,0)" xlink:href="#L"/><use transform="matrix(0.05,0,0,0.05,20.95,0)" xlink:href="#y"/></g><g id="q"><use transform="matrix(0.05,0,0,0.05,0,0)" xlink:href="#C"/><use transform="matrix(0.05,0,0,0.05,3.95,0)" xlink:href="#K"/><use transform="matrix(0.05,0,0,0.05,12.949999999999998,0)" xlink:href="#Q"/><use transform="matrix(0.05,0,0,0.05,26.950000000000003,0)" xlink:href="#R"/><use transform="matrix(0.05,0,0,0.05,31.950000000000003,0)" xlink:href="#P"/><use transform="matrix(0.05,0,0,0.05,43.95,0)" xlink:href="#C"/><use transform="matrix(0.05,0,0,0.05,47.900000000000006,0)" xlink:href="#L"/><use transform="matrix(0.05,0,0,0.05,52.900000000000006,0)" xlink:href="#y"/></g><path d="M140-251c81 0 123 46 123 126C263-53 228-8 163 1c7 30 30 48 69 40v23c-55 16-95-15-103-61C56-3 17-48 17-125c0-80 42-126 123-126zm0 227c63 0 89-41 89-101s-29-99-89-99c-61 0-89 39-89 99S79-25 140-24" id="Y"/><g id="r"><use transform="matrix(0.05,0,0,0.05,0,0)" xlink:href="#C"/><use transform="matrix(0.05,0,0,0.05,3.95,0)" xlink:href="#K"/><use transform="matrix(0.05,0,0,0.05,12.949999999999998,0)" xlink:href="#Y"/><use transform="matrix(0.05,0,0,0.05,26.950000000000003,0)" xlink:href="#O"/><use transform="matrix(0.05,0,0,0.05,36.95,0)" xlink:href="#E"/><use transform="matrix(0.05,0,0,0.05,46.95,0)" xlink:href="#J"/><use transform="matrix(0.05,0,0,0.05,56.95,0)" xlink:href="#L"/><use transform="matrix(0.05,0,0,0.05,61.95,0)" xlink:href="#C"/><use transform="matrix(0.05,0,0,0.05,65.9,0)" xlink:href="#L"/><use transform="matrix(0.05,0,0,0.05,70.9,0)" xlink:href="#X"/><use transform="matrix(0.05,0,0,0.05,79.9,0)" xlink:href="#Q"/><use transform="matrix(0.05,0,0,0.05,93.9,0)" xlink:href="#R"/></g><g id="s"><use transform="matrix(0.05,0,0,0.05,0,0)" xlink:href="#C"/><use transform="matrix(0.05,0,0,0.05,3.95,0)" xlink:href="#K"/><use transform="matrix(0.05,0,0,0.05,12.949999999999998,0)" xlink:href="#P"/><use transform="matrix(0.05,0,0,0.05,24.95,0)" xlink:href="#O"/><use transform="matrix(0.05,0,0,0.05,34.95,0)" xlink:href="#F"/><use transform="matrix(0.05,0,0,0.05,40.900000000000006,0)" xlink:href="#M"/><use transform="matrix(0.05,0,0,0.05,49.900000000000006,0)" xlink:href="#y"/><use transform="matrix(0.05,0,0,0.05,59.900000000000006,0)" xlink:href="#X"/><use transform="matrix(0.05,0,0,0.05,68.9,0)" xlink:href="#Q"/><use transform="matrix(0.05,0,0,0.05,82.9,0)" xlink:href="#R"/></g><path d="M232-93c-1 65-40 97-104 97C67 4 28-28 28-90v-158h33c8 89-33 224 67 224 102 0 64-133 71-224h33v155" id="Z"/><g id="t"><use transform="matrix(0.05,0,0,0.05,0,0)" xlink:href="#T"/><use transform="matrix(0.05,0,0,0.05,10,0)" xlink:href="#E"/><use transform="matrix(0.05,0,0,0.05,20,0)" xlink:href="#K"/><use transform="matrix(0.05,0,0,0.05,29,0)" xlink:href="#Z"/><use transform="matrix(0.05,0,0,0.05,41.95,0)" xlink:href="#A"/><use transform="matrix(0.05,0,0,0.05,45.900000000000006,0)" xlink:href="#L"/><use transform="matrix(0.05,0,0,0.05,50.900000000000006,0)" xlink:href="#C"/><use transform="matrix(0.05,0,0,0.05,54.85,0)" xlink:href="#I"/><use transform="matrix(0.05,0,0,0.05,69.80000000000001,0)" xlink:href="#E"/><use transform="matrix(0.05,0,0,0.05,79.80000000000001,0)" xlink:href="#L"/><use transform="matrix(0.05,0,0,0.05,84.80000000000001,0)" xlink:href="#y"/><use transform="matrix(0.05,0,0,0.05,94.80000000000001,0)" xlink:href="#N"/><use transform="matrix(0.05,0,0,0.05,105.75,0)" xlink:href="#y"/><use transform="matrix(0.05,0,0,0.05,115.75,0)" xlink:href="#E"/><use transform="matrix(0.05,0,0,0.05,125.75,0)" xlink:href="#L"/><use transform="matrix(0.05,0,0,0.05,130.75,0)" xlink:href="#O"/><use transform="matrix(0.05,0,0,0.05,140.75,0)" xlink:href="#F"/><use transform="matrix(0.05,0,0,0.05,146.7,0)" xlink:href="#y"/></g><path d="M33 0v-248h34V0H33" id="aa"/><g id="u"><use transform="matrix(0.05,0,0,0.05,0,0)" xlink:href="#Q"/><use transform="matrix(0.05,0,0,0.05,14,0)" xlink:href="#R"/><use transform="matrix(0.05,0,0,0.05,19,0)" xlink:href="#aa"/><use transform="matrix(0.05,0,0,0.05,24,0)" xlink:href="#J"/><use transform="matrix(0.05,0,0,0.05,34,0)" xlink:href="#L"/><use transform="matrix(0.05,0,0,0.05,39,0)" xlink:href="#y"/><use transform="matrix(0.05,0,0,0.05,49,0)" xlink:href="#F"/><use transform="matrix(0.05,0,0,0.05,54.95,0)" xlink:href="#y"/><use transform="matrix(0.05,0,0,0.05,64.95,0)" xlink:href="#K"/><use transform="matrix(0.05,0,0,0.05,73.95,0)" xlink:href="#L"/></g><g id="v"><use transform="matrix(0.05,0,0,0.05,0,0)" xlink:href="#C"/><use transform="matrix(0.05,0,0,0.05,3.95,0)" xlink:href="#K"/><use transform="matrix(0.05,0,0,0.05,12.949999999999998,0)" xlink:href="#P"/><use transform="matrix(0.05,0,0,0.05,24.95,0)" xlink:href="#E"/><use transform="matrix(0.05,0,0,0.05,34.95,0)" xlink:href="#I"/><use transform="matrix(0.05,0,0,0.05,49.900000000000006,0)" xlink:href="#S"/><use transform="matrix(0.05,0,0,0.05,59.900000000000006,0)" xlink:href="#A"/><use transform="matrix(0.05,0,0,0.05,63.85,0)" xlink:href="#y"/><use transform="matrix(0.05,0,0,0.05,73.85000000000001,0)" xlink:href="#Q"/><use transform="matrix(0.05,0,0,0.05,87.85000000000001,0)" xlink:href="#R"/></g><g id="w"><use transform="matrix(0.05,0,0,0.05,0,0)" xlink:href="#R"/><use transform="matrix(0.05,0,0,0.05,5,0)" xlink:href="#F"/><use transform="matrix(0.05,0,0,0.05,10.95,0)" xlink:href="#z"/><use transform="matrix(0.05,0,0,0.05,20.95,0)" xlink:href="#I"/><use transform="matrix(0.05,0,0,0.05,35.9,0)" xlink:href="#P"/><use transform="matrix(0.05,0,0,0.05,47.9,0)" xlink:href="#E"/><use transform="matrix(0.05,0,0,0.05,57.900000000000006,0)" xlink:href="#I"/><use transform="matrix(0.05,0,0,0.05,72.85,0)" xlink:href="#S"/><use transform="matrix(0.05,0,0,0.05,82.85,0)" xlink:href="#A"/><use transform="matrix(0.05,0,0,0.05,86.8,0)" xlink:href="#y"/></g></defs></g></svg>